<svg id="Capa_1" enable-background="new 0 0 512 512" height="512" viewBox="0 0 512 512" width="512" xmlns="http://www.w3.org/2000/svg"><g><path d="m15.92 24.56h480.68v306.6h-480.68z" fill="#404a80"/><path d="m256 24.56h240.6v306.6h-240.6z" fill="#283366"/><g><path d="m265.711 362h-36.111c-7.28 0-13.19 6.72-13.19 15v60c0 8.28 5.91 15 13.19 15h36.111z" fill="#8095ff"/></g><path d="m295.59 377v60c0 8.28-5.91 15-13.19 15h-26.4v-90h26.4c7.28 0 13.19 6.72 13.19 15z" fill="#66f"/><g><g><g><path d="m277.737 460.311-21.737-30.531h-83.48c-6.45 0-12.19 3.78-14.23 9.38l-20 54.81c-3.235 8.875 4.013 18.03 14.23 18.03h103.48l21.737-30.544z" fill="#404a80"/></g></g></g><path d="m277.737 331.16-21.737-19.16h-226v-282h226l21.737-10.584v-11.21l-21.737-8.206h-241c-8.28 0-15 6.72-15 15v362c0 8.28 6.72 15 15 15h241l21.737-30z" fill="#e8f1fd"/><g><g><g><g><g><path d="m207.697 156h-23.394c-18.363 0-33.303-14.94-33.303-33.303v-33.394c0-18.363 14.94-33.303 33.303-33.303h23.394c18.363 0 33.303 14.94 33.303 33.303v33.394c0 18.363-14.94 33.303-33.303 33.303zm-23.394-70c-1.821 0-3.303 1.482-3.303 3.303v33.394c0 1.821 1.482 3.303 3.303 3.303h23.394c1.821 0 3.303-1.482 3.303-3.303v-33.394c0-1.821-1.482-3.303-3.303-3.303z" fill="#cfdbfd"/></g></g></g></g><g><g><g><g><path d="m387.697 156h-23.394c-18.363 0-33.303-14.94-33.303-33.303v-33.394c0-18.363 14.94-33.303 33.303-33.303h23.394c18.363 0 33.303 14.94 33.303 33.303v33.394c0 18.363-14.94 33.303-33.303 33.303zm-23.394-70c-1.821 0-3.303 1.482-3.303 3.303v33.394c0 1.821 1.482 3.303 3.303 3.303h23.394c1.821 0 3.303-1.482 3.303-3.303v-33.394c0-1.821-1.482-3.303-3.303-3.303z" fill="#b3c7ef"/></g></g></g></g><g><g><g><path d="m106 156c-8.284 0-15-6.716-15-15v-70c0-8.284 6.716-15 15-15s15 6.716 15 15v70c0 8.284-6.716 15-15 15z" fill="#e8f1fd"/></g></g></g><g><g><g><path d="m286 156c-8.284 0-15-6.716-15-15v-70c0-8.284 6.716-15 15-15s15 6.716 15 15v70c0 8.284-6.716 15-15 15z" fill="#cfdbfd"/></g></g></g><g><g><g><g><path d="m147.697 286h-23.394c-18.363 0-33.303-14.94-33.303-33.303v-33.394c0-18.363 14.94-33.303 33.303-33.303h23.394c18.363 0 33.303 14.94 33.303 33.303v33.394c0 18.363-14.94 33.303-33.303 33.303zm-23.394-70c-1.821 0-3.303 1.482-3.303 3.303v33.394c0 1.821 1.482 3.303 3.303 3.303h23.394c1.821 0 3.303-1.482 3.303-3.303v-33.394c0-1.821-1.482-3.303-3.303-3.303z" fill="#cfdbfd"/></g></g></g></g><g><g><g><g><path d="m327.697 286h-23.394c-18.363 0-33.303-14.94-33.303-33.303v-33.394c0-18.363 14.94-33.303 33.303-33.303h23.394c18.363 0 33.303 14.94 33.303 33.303v33.394c0 18.363-14.94 33.303-33.303 33.303zm-23.394-70c-1.821 0-3.303 1.482-3.303 3.303v33.394c0 1.821 1.482 3.303 3.303 3.303h23.394c1.821 0 3.303-1.482 3.303-3.303v-33.394c0-1.821-1.482-3.303-3.303-3.303z" fill="#b3c7ef"/></g></g></g></g><g><g><g><path d="m226 286c-8.284 0-15-6.716-15-15v-70c0-8.284 6.716-15 15-15s15 6.716 15 15v70c0 8.284-6.716 15-15 15z" fill="#e8f1fd"/></g></g></g><g><g><g><path d="m406 286c-8.284 0-15-6.716-15-15v-70c0-8.284 6.716-15 15-15s15 6.716 15 15v70c0 8.284-6.716 15-15 15z" fill="#cfdbfd"/></g></g></g></g><path d="m373.71 493.97c1.52 4.17.76 8.77-2.06 12.34s-7.35 5.69-12.17 5.69h-103.48v-82.22h83.48c6.45 0 12.19 3.78 14.23 9.38z" fill="#283366"/><path d="m512 15v362c0 8.28-6.72 15-15 15h-241v-80h226v-282h-226v-30h241c8.28 0 15 6.72 15 15z" fill="#cfdbfd"/></g></svg>